STARTFONT 2.1
FONT -Monotype-Bookman Old Style-Bold-R-Normal--17-120-100-100-P-88-iso8859-9
SIZE 12 100 100
FONTBOUNDINGBOX 25 19 -3 -4

STARTPROPERTIES 24
FOUNDRY "Monotype"
FAMILY_NAME "Bookman Old Style"
WEIGHT_NAME "Bold"
SLANT "R"
SETWIDTH_NAME "Normal"
ADD_STYLE_NAME ""
PIXEL_SIZE 17
POINT_SIZE 120
RESOLUTION_X 100
RESOLUTION_Y 100
SPACING "P"
AVERAGE_WIDTH 88
CHARSET_REGISTRY "iso8859"
CHARSET_ENCODING "9"
FACE_NAME "Bookman Old Style Bold ISO Latin5"
_DEC_DEVICE_FONTNAMES "PS=bookmanoldstyle-b-lat5"
COPYRIGHT "Copyright (c) 1994 Monotype Typography Ltd."
CAP_HEIGHT 14
X_HEIGHT 10
WEIGHT 10
QUAD_WIDTH 12
DEFAULT_CHAR 160
FONT_DESCENT 5
FONT_ASCENT 17
ENDPROPERTIES

CHARS 191

STARTCHAR space
ENCODING 32
SWIDTH 340 0
DWIDTH 6 0
BBX 0 0 0 0
BITMAP
ENDCHAR

STARTCHAR exclam
ENCODING 33
SWIDTH 360 0
DWIDTH 6 0
BBX 3 13 2 0
BITMAP
40
E0
E0
E0
E0
E0
E0
40
40
00
E0
E0
E0
ENDCHAR

STARTCHAR quotedbl
ENCODING 34
SWIDTH 420 0
DWIDTH 7 0
BBX 5 5 1 7
BITMAP
48
D8
D8
D8
48
ENDCHAR

STARTCHAR numbersign
ENCODING 35
SWIDTH 600 0
DWIDTH 10 0
BBX 8 12 1 0
BITMAP
36
36
36
36
FF
36
6C
FF
6C
6C
6C
6C
ENDCHAR

STARTCHAR dollar
ENCODING 36
SWIDTH 660 0
DWIDTH 11 0
BBX 9 16 1 -2
BITMAP
1800
1800
3A00
7F00
E300
E100
F800
7E00
1F00
8780
C380
E380
FF00
5E00
0C00
0C00
ENDCHAR

STARTCHAR percent
ENCODING 37
SWIDTH 940 0
DWIDTH 16 0
BBX 15 12 0 0
BITMAP
7820
CC60
CC40
CC80
CD80
CD3C
7A66
0666
0466
0866
1866
103C
ENDCHAR

STARTCHAR ampersand
ENCODING 38
SWIDTH 800 0
DWIDTH 14 0
BBX 13 12 1 0
BITMAP
1E00
3F00
3300
3300
1EF0
7B60
7360
E1D8
E1D8
F0D8
7FF0
3E60
ENDCHAR

STARTCHAR quoteright
ENCODING 39
SWIDTH 320 0
DWIDTH 5 0
BBX 3 6 1 7
BITMAP
C0
E0
E0
60
C0
80
ENDCHAR

STARTCHAR parenleft
ENCODING 40
SWIDTH 320 0
DWIDTH 5 0
BBX 4 17 1 -4
BITMAP
10
30
60
60
E0
E0
C0
C0
C0
C0
C0
E0
E0
60
60
30
10
ENDCHAR

STARTCHAR parenright
ENCODING 41
SWIDTH 320 0
DWIDTH 5 0
BBX 4 17 1 -4
BITMAP
80
C0
60
60
70
70
30
30
30
30
30
70
70
60
60
C0
80
ENDCHAR

STARTCHAR asterisk
ENCODING 42
SWIDTH 460 0
DWIDTH 8 0
BBX 8 7 0 5
BITMAP
10
18
CB
7E
18
76
24
ENDCHAR

STARTCHAR plus
ENCODING 43
SWIDTH 600 0
DWIDTH 10 0
BBX 8 8 1 2
BITMAP
18
18
18
FF
FF
18
18
18
ENDCHAR

STARTCHAR comma
ENCODING 44
SWIDTH 340 0
DWIDTH 6 0
BBX 3 6 2 -3
BITMAP
C0
E0
E0
60
C0
80
ENDCHAR

STARTCHAR minus
ENCODING 45
SWIDTH 600 0
DWIDTH 10 0
BBX 8 2 1 5
BITMAP
FF
FF
ENDCHAR

STARTCHAR period
ENCODING 46
SWIDTH 340 0
DWIDTH 6 0
BBX 3 3 1 0
BITMAP
E0
E0
E0
ENDCHAR

STARTCHAR slash
ENCODING 47
SWIDTH 600 0
DWIDTH 10 0
BBX 7 17 1 -4
BITMAP
06
06
0E
0C
0C
1C
18
18
38
30
30
70
60
60
E0
C0
C0
ENDCHAR

STARTCHAR zero
ENCODING 48
SWIDTH 660 0
DWIDTH 11 0
BBX 10 12 1 0
BITMAP
1E00
7F80
7380
E1C0
E1C0
E1C0
E1C0
E1C0
E1C0
7380
7F80
1E00
ENDCHAR

STARTCHAR one
ENCODING 49
SWIDTH 660 0
DWIDTH 11 0
BBX 7 12 3 0
BITMAP
18
F8
F8
38
38
38
38
38
38
38
FE
FE
ENDCHAR

STARTCHAR two
ENCODING 50
SWIDTH 660 0
DWIDTH 11 0
BBX 10 12 1 0
BITMAP
3E00
7F80
E3C0
C1C0
C1C0
03C0
0780
0F00
1C40
38C0
FFC0
FFC0
ENDCHAR

STARTCHAR three
ENCODING 51
SWIDTH 660 0
DWIDTH 11 0
BBX 10 12 1 0
BITMAP
1F00
3F80
73C0
61C0
0180
0F00
0F80
01C0
C1C0
F3C0
7F80
1E00
ENDCHAR

STARTCHAR four
ENCODING 52
SWIDTH 660 0
DWIDTH 11 0
BBX 10 12 1 0
BITMAP
0700
0F00
1F00
3F00
7700
E700
C700
FFC0
FFC0
0700
0700
0700
ENDCHAR

STARTCHAR five
ENCODING 53
SWIDTH 660 0
DWIDTH 11 0
BBX 10 12 1 0
BITMAP
7F80
7F80
6000
6000
7F00
7F80
03C0
01C0
C1C0
F3C0
7F80
1F00
ENDCHAR

STARTCHAR six
ENCODING 54
SWIDTH 660 0
DWIDTH 11 0
BBX 10 12 1 0
BITMAP
0780
1E00
3800
7000
6E00
FF80
F3C0
E1C0
E1C0
F3C0
7F80
1E00
ENDCHAR

STARTCHAR seven
ENCODING 55
SWIDTH 660 0
DWIDTH 11 0
BBX 10 12 1 0
BITMAP
7FC0
FFC0
C180
8300
0700
0E00
0E00
1C00
1C00
1C00
1C00
1C00
ENDCHAR

STARTCHAR eight
ENCODING 56
SWIDTH 660 0
DWIDTH 11 0
BBX 10 12 1 0
BITMAP
3F00
7F80
E1C0
E1C0
F1C0
7F80
7F80
E3C0
E1C0
E1C0
7F80
3F00
ENDCHAR

STARTCHAR nine
ENCODING 57
SWIDTH 660 0
DWIDTH 11 0
BBX 10 12 1 0
BITMAP
1E00
7F80
F3C0
E1C0
E1C0
F3C0
7FC0
1D80
0380
0700
1E00
7800
ENDCHAR

STARTCHAR colon
ENCODING 58
SWIDTH 340 0
DWIDTH 6 0
BBX 3 8 1 0
BITMAP
E0
E0
E0
00
00
E0
E0
E0
ENDCHAR

STARTCHAR semicolon
ENCODING 59
SWIDTH 340 0
DWIDTH 6 0
BBX 3 11 1 -3
BITMAP
E0
E0
E0
00
00
C0
E0
E0
60
C0
80
ENDCHAR

STARTCHAR less
ENCODING 60
SWIDTH 600 0
DWIDTH 10 0
BBX 8 9 1 1
BITMAP
03
0F
3C
F0
E0
78
1C
0F
03
ENDCHAR

STARTCHAR equal
ENCODING 61
SWIDTH 600 0
DWIDTH 10 0
BBX 8 5 1 3
BITMAP
FF
FF
00
FF
FF
ENDCHAR

STARTCHAR greater
ENCODING 62
SWIDTH 600 0
DWIDTH 10 0
BBX 8 9 1 1
BITMAP
C0
F0
38
1E
07
0F
3C
F0
C0
ENDCHAR

STARTCHAR question
ENCODING 63
SWIDTH 660 0
DWIDTH 11 0
BBX 9 13 1 0
BITMAP
7C00
FF00
C780
4380
0380
0780
3F00
3C00
3000
0000
7000
7000
7000
ENDCHAR

STARTCHAR at
ENCODING 64
SWIDTH 820 0
DWIDTH 14 0
BBX 14 16 0 -4
BITMAP
07E0
1810
2008
2004
4364
86C4
8CC4
8CC4
99C4
9B88
9DB4
48C4
4008
2018
1860
0780
ENDCHAR

STARTCHAR A
ENCODING 65
SWIDTH 720 0
DWIDTH 12 0
BBX 12 12 0 0
BITMAP
0700
0700
0F80
0D80
1980
19C0
3FC0
3FC0
60E0
60E0
F1F0
F1F0
ENDCHAR

STARTCHAR B
ENCODING 66
SWIDTH 720 0
DWIDTH 12 0
BBX 11 12 1 0
BITMAP
FF80
FFC0
71E0
70E0
70C0
7F80
7FC0
70E0
70E0
71E0
FFC0
FF80
ENDCHAR

STARTCHAR C
ENCODING 67
SWIDTH 740 0
DWIDTH 13 0
BBX 12 12 1 0
BITMAP
0F60
3FE0
78E0
7060
E020
E000
E000
E000
7030
78E0
3FC0
0F80
ENDCHAR

STARTCHAR D
ENCODING 68
SWIDTH 780 0
DWIDTH 13 0
BBX 12 12 1 0
BITMAP
FF80
FFE0
70E0
7070
7070
7070
7070
7070
7070
70E0
FFE0
FF80
ENDCHAR

STARTCHAR E
ENCODING 69
SWIDTH 720 0
DWIDTH 12 0
BBX 11 12 1 0
BITMAP
FFC0
FFE0
70E0
7060
7200
7E00
7E00
7200
7060
70E0
FFE0
FFC0
ENDCHAR

STARTCHAR F
ENCODING 70
SWIDTH 680 0
DWIDTH 12 0
BBX 11 12 1 0
BITMAP
FFC0
FFE0
70E0
7060
7200
7E00
7E00
7200
7000
7000
F800
F800
ENDCHAR

STARTCHAR G
ENCODING 71
SWIDTH 780 0
DWIDTH 13 0
BBX 12 12 1 0
BITMAP
0F60
3FE0
78E0
7060
E000
E1F0
E1F0
E0E0
70E0
79E0
3FE0
0F60
ENDCHAR

STARTCHAR H
ENCODING 72
SWIDTH 820 0
DWIDTH 14 0
BBX 12 12 1 0
BITMAP
F9F0
F9F0
70E0
70E0
70E0
7FE0
7FE0
70E0
70E0
70E0
F9F0
F9F0
ENDCHAR

STARTCHAR I
ENCODING 73
SWIDTH 400 0
DWIDTH 7 0
BBX 5 12 1 0
BITMAP
F8
F8
70
70
70
70
70
70
70
70
F8
F8
ENDCHAR

STARTCHAR J
ENCODING 74
SWIDTH 640 0
DWIDTH 11 0
BBX 10 12 0 0
BITMAP
07C0
07C0
0380
0380
0380
0380
0380
C380
E380
E380
7F00
3E00
ENDCHAR

STARTCHAR K
ENCODING 75
SWIDTH 800 0
DWIDTH 14 0
BBX 13 12 1 0
BITMAP
F9F0
F9F0
70C0
7180
7300
7700
7F80
7BC0
71C0
70E0
F9F8
F9F8
ENDCHAR

STARTCHAR L
ENCODING 76
SWIDTH 640 0
DWIDTH 11 0
BBX 10 12 1 0
BITMAP
F800
F800
7000
7000
7000
7000
7000
7000
70C0
71C0
FFC0
FF80
ENDCHAR

STARTCHAR M
ENCODING 77
SWIDTH 940 0
DWIDTH 16 0
BBX 14 12 1 0
BITMAP
F87C
F87C
6CF8
6CB8
6DB8
6DB8
6F38
6738
6738
6738
F77C
F27C
ENDCHAR

STARTCHAR N
ENCODING 78
SWIDTH 740 0
DWIDTH 13 0
BBX 11 12 1 0
BITMAP
F9E0
F9E0
7CC0
6CC0
6EC0
6EC0
66C0
67C0
63C0
63C0
F1C0
F1C0
ENDCHAR

STARTCHAR O
ENCODING 79
SWIDTH 800 0
DWIDTH 14 0
BBX 12 12 1 0
BITMAP
1F80
7FE0
70E0
E070
E070
E070
E070
E070
E070
70E0
7FE0
1F80
ENDCHAR

STARTCHAR P
ENCODING 80
SWIDTH 660 0
DWIDTH 11 0
BBX 10 12 1 0
BITMAP
FF00
FF80
71C0
71C0
71C0
7F80
7F00
7000
7000
7000
F800
F800
ENDCHAR

STARTCHAR Q
ENCODING 81
SWIDTH 800 0
DWIDTH 14 0
BBX 12 15 1 -3
BITMAP
1F80
7FE0
70E0
E070
E070
E070
E070
E070
E070
70E0
7FE0
1F80
0E00
0FE0
07C0
ENDCHAR

STARTCHAR R
ENCODING 82
SWIDTH 780 0
DWIDTH 13 0
BBX 12 12 1 0
BITMAP
FF00
FFC0
70E0
70E0
70E0
7FC0
7F00
7780
7380
71C0
F8F0
F8F0
ENDCHAR

STARTCHAR S
ENCODING 83
SWIDTH 660 0
DWIDTH 11 0
BBX 10 12 1 0
BITMAP
3D00
7F80
E180
E080
F800
7F00
1F80
83C0
C1C0
E1C0
FF80
5F00
ENDCHAR

STARTCHAR T
ENCODING 84
SWIDTH 700 0
DWIDTH 12 0
BBX 11 12 1 0
BITMAP
7FC0
7FC0
EEE0
CE60
0E00
0E00
0E00
0E00
0E00
0E00
1F00
1F00
ENDCHAR

STARTCHAR U
ENCODING 85
SWIDTH 740 0
DWIDTH 13 0
BBX 11 12 1 0
BITMAP
F9E0
F9E0
70C0
70C0
70C0
70C0
70C0
70C0
70C0
79C0
3F80
1F00
ENDCHAR

STARTCHAR V
ENCODING 86
SWIDTH 720 0
DWIDTH 12 0
BBX 12 12 0 0
BITMAP
F8F0
F8F0
7060
38E0
38C0
38C0
1D80
1D80
0F80
0F00
0700
0700
ENDCHAR

STARTCHAR W
ENCODING 87
SWIDTH 940 0
DWIDTH 16 0
BBX 16 12 0 0
BITMAP
FBEF
FBEF
71C6
39CE
39CC
39CC
1DD8
1F78
1F78
0E70
0E70
0E70
ENDCHAR

STARTCHAR X
ENCODING 88
SWIDTH 780 0
DWIDTH 13 0
BBX 13 12 0 0
BITMAP
FEF8
FEF8
3C60
1EC0
0F80
0700
0780
0FC0
19E0
30F0
F9F8
F9F8
ENDCHAR

STARTCHAR Y
ENCODING 89
SWIDTH 700 0
DWIDTH 12 0
BBX 11 12 1 0
BITMAP
F9E0
F9E0
70C0
3980
3F80
1F00
0E00
0E00
0E00
0E00
1F00
1F00
ENDCHAR

STARTCHAR Z
ENCODING 90
SWIDTH 640 0
DWIDTH 11 0
BBX 10 12 0 0
BITMAP
7FC0
FFC0
E3C0
C780
0700
0E00
1C00
3800
78C0
F1C0
FFC0
FF80
ENDCHAR

STARTCHAR bracketleft
ENCODING 91
SWIDTH 300 0
DWIDTH 5 0
BBX 4 17 1 -4
BITMAP
F0
F0
C0
C0
C0
C0
C0
C0
C0
C0
C0
C0
C0
C0
C0
F0
F0
ENDCHAR

STARTCHAR backslash
ENCODING 92
SWIDTH 600 0
DWIDTH 10 0
BBX 7 17 1 -4
BITMAP
C0
C0
E0
60
60
70
30
30
38
18
18
1C
0C
0C
0E
06
06
ENDCHAR

STARTCHAR bracketright
ENCODING 93
SWIDTH 300 0
DWIDTH 5 0
BBX 4 17 0 -4
BITMAP
F0
F0
30
30
30
30
30
30
30
30
30
30
30
30
30
F0
F0
ENDCHAR

STARTCHAR asciicircum
ENCODING 94
SWIDTH 600 0
DWIDTH 10 0
BBX 8 7 1 5
BITMAP
18
1C
3C
36
66
63
C3
ENDCHAR

STARTCHAR underscore
ENCODING 95
SWIDTH 500 0
DWIDTH 9 0
BBX 9 1 0 -2
BITMAP
FF80
ENDCHAR

STARTCHAR quoteleft
ENCODING 96
SWIDTH 320 0
DWIDTH 5 0
BBX 3 6 1 7
BITMAP
20
60
C0
E0
E0
60
ENDCHAR

STARTCHAR a
ENCODING 97
SWIDTH 580 0
DWIDTH 10 0
BBX 9 8 1 0
BITMAP
3E00
7F00
6300
1F00
7B00
E300
FF80
7B80
ENDCHAR

STARTCHAR b
ENCODING 98
SWIDTH 600 0
DWIDTH 10 0
BBX 10 13 0 0
BITMAP
3000
F000
F000
7000
7000
7700
7F80
71C0
71C0
71C0
71C0
7F80
6F00
ENDCHAR

STARTCHAR c
ENCODING 99
SWIDTH 580 0
DWIDTH 10 0
BBX 9 8 1 0
BITMAP
3E00
7F00
F300
E000
E000
F180
7F00
3E00
ENDCHAR

STARTCHAR d
ENCODING 100
SWIDTH 640 0
DWIDTH 11 0
BBX 10 13 1 0
BITMAP
0180
0780
0780
0380
0380
1F80
7F80
F380
E380
E380
F380
7FC0
1DC0
ENDCHAR

STARTCHAR e
ENCODING 101
SWIDTH 580 0
DWIDTH 10 0
BBX 9 8 1 0
BITMAP
3E00
7F00
E380
FF80
E000
F180
7F00
3E00
ENDCHAR

STARTCHAR f
ENCODING 102
SWIDTH 380 0
DWIDTH 7 0
BBX 7 12 1 0
BITMAP
1C
3E
76
70
F8
F8
70
70
70
70
F8
F8
ENDCHAR

STARTCHAR g
ENCODING 103
SWIDTH 580 0
DWIDTH 10 0
BBX 9 12 1 -4
BITMAP
3D80
7F80
E700
E700
7E00
DC00
E000
FC00
7F00
C780
E380
7F00
ENDCHAR

STARTCHAR h
ENCODING 104
SWIDTH 680 0
DWIDTH 12 0
BBX 10 13 1 0
BITMAP
3000
F000
F000
7000
7000
7700
7F80
7380
7380
7380
7380
FBC0
FBC0
ENDCHAR

STARTCHAR i
ENCODING 105
SWIDTH 360 0
DWIDTH 6 0
BBX 5 13 1 0
BITMAP
70
70
70
00
00
30
F0
F0
70
70
70
F8
F8
ENDCHAR

STARTCHAR j
ENCODING 106
SWIDTH 340 0
DWIDTH 6 0
BBX 6 17 -1 -4
BITMAP
1C
1C
1C
00
00
0C
3C
3C
1C
1C
1C
1C
1C
1C
DC
F8
70
ENDCHAR

STARTCHAR k
ENCODING 107
SWIDTH 660 0
DWIDTH 11 0
BBX 10 13 1 0
BITMAP
3000
F000
F000
7000
7000
77C0
77C0
7300
7E00
7F00
7380
FBC0
FBC0
ENDCHAR

STARTCHAR l
ENCODING 108
SWIDTH 340 0
DWIDTH 7 0
BBX 5 13 1 0
BITMAP
30
F0
F0
70
70
70
70
70
70
70
70
F8
F8
ENDCHAR

STARTCHAR m
ENCODING 109
SWIDTH 1000 0
DWIDTH 17 0
BBX 15 8 1 0
BITMAP
77B8
FFFC
FBDC
739C
739C
739C
FBDE
FBDE
ENDCHAR

STARTCHAR n
ENCODING 110
SWIDTH 680 0
DWIDTH 12 0
BBX 10 8 1 0
BITMAP
6F00
FF80
F380
7380
7380
7380
FBC0
FBC0
ENDCHAR

STARTCHAR o
ENCODING 111
SWIDTH 620 0
DWIDTH 11 0
BBX 9 8 1 0
BITMAP
3E00
7F00
E380
E380
E380
E380
7F00
3E00
ENDCHAR

STARTCHAR p
ENCODING 112
SWIDTH 640 0
DWIDTH 11 0
BBX 10 12 1 -4
BITMAP
7700
FF80
F1C0
71C0
71C0
71C0
7F80
7700
7000
7000
F800
F800
ENDCHAR

STARTCHAR q
ENCODING 113
SWIDTH 620 0
DWIDTH 11 0
BBX 10 12 1 -4
BITMAP
3D80
7F80
E380
E380
E380
F380
7F80
3D80
0380
0380
07C0
07C0
ENDCHAR

STARTCHAR r
ENCODING 114
SWIDTH 460 0
DWIDTH 8 0
BBX 7 8 1 0
BITMAP
76
FE
FC
70
70
70
F8
F8
ENDCHAR

STARTCHAR s
ENCODING 115
SWIDTH 520 0
DWIDTH 9 0
BBX 7 8 1 0
BITMAP
7C
FE
E6
F8
3E
C6
FE
7C
ENDCHAR

STARTCHAR t
ENCODING 116
SWIDTH 460 0
DWIDTH 7 0
BBX 7 11 0 0
BITMAP
30
30
70
FE
FE
70
70
70
76
7E
3C
ENDCHAR

STARTCHAR u
ENCODING 117
SWIDTH 660 0
DWIDTH 11 0
BBX 10 8 1 0
BITMAP
F780
F780
7380
7380
7380
7380
7FC0
3DC0
ENDCHAR

STARTCHAR v
ENCODING 118
SWIDTH 600 0
DWIDTH 10 0
BBX 10 8 0 0
BITMAP
FBC0
FBC0
7180
3B00
3B00
1E00
1E00
0C00
ENDCHAR

STARTCHAR w
ENCODING 119
SWIDTH 800 0
DWIDTH 14 0
BBX 14 8 0 0
BITMAP
FBBC
FB9C
7398
77B0
3FB0
3DE0
1DE0
18C0
ENDCHAR

STARTCHAR x
ENCODING 120
SWIDTH 600 0
DWIDTH 10 0
BBX 10 8 0 0
BITMAP
F3C0
F3C0
7980
1F00
1F00
3380
F7C0
F7C0
ENDCHAR

STARTCHAR y
ENCODING 121
SWIDTH 620 0
DWIDTH 11 0
BBX 10 12 1 -4
BITMAP
FBC0
FBC0
7180
3980
3B00
1F00
1E00
0E00
0C00
4C00
F800
7000
ENDCHAR

STARTCHAR z
ENCODING 122
SWIDTH 560 0
DWIDTH 9 0
BBX 9 8 0 0
BITMAP
3F80
7F80
6700
1E00
3C00
7180
FF80
FF00
ENDCHAR

STARTCHAR braceleft
ENCODING 123
SWIDTH 320 0
DWIDTH 5 0
BBX 5 17 0 -4
BITMAP
18
20
60
60
60
60
60
40
80
40
60
60
60
60
60
20
18
ENDCHAR

STARTCHAR bar
ENCODING 124
SWIDTH 600 0
DWIDTH 10 0
BBX 2 17 4 -4
BITMAP
C0
C0
C0
C0
C0
C0
C0
C0
C0
C0
C0
C0
C0
C0
C0
C0
C0
ENDCHAR

STARTCHAR braceright
ENCODING 125
SWIDTH 320 0
DWIDTH 5 0
BBX 5 17 0 -4
BITMAP
C0
20
30
30
30
30
30
10
08
10
30
30
30
30
30
20
C0
ENDCHAR

STARTCHAR asciitilde
ENCODING 126
SWIDTH 600 0
DWIDTH 10 0
BBX 8 3 1 4
BITMAP
71
FF
8E
ENDCHAR

STARTCHAR space
ENCODING 160
SWIDTH 340 0
DWIDTH 7 0
BBX 0 0 0 0
BITMAP
ENDCHAR

STARTCHAR exclamdown
ENCODING 161
SWIDTH 360 0
DWIDTH 6 0
BBX 3 13 2 -4
BITMAP
E0
E0
E0
00
40
40
E0
E0
E0
E0
E0
E0
40
ENDCHAR

STARTCHAR cent
ENCODING 162
SWIDTH 660 0
DWIDTH 11 0
BBX 9 12 1 0
BITMAP
0C00
0C00
3F00
7780
E300
E000
E000
7180
7F00
1E00
0C00
0C00
ENDCHAR

STARTCHAR sterling
ENCODING 163
SWIDTH 660 0
DWIDTH 11 0
BBX 11 12 0 0
BITMAP
0F00
1F80
38C0
38C0
1800
7F00
1C00
0C60
7C60
CFE0
DBC0
7180
ENDCHAR

STARTCHAR currency
ENCODING 164
SWIDTH 600 0
DWIDTH 10 0
BBX 8 8 1 2
BITMAP
DB
FF
42
C3
C3
42
FF
DB
ENDCHAR

STARTCHAR yen
ENCODING 165
SWIDTH 660 0
DWIDTH 11 0
BBX 11 12 0 0
BITMAP
F9E0
F9E0
70C0
3980
1D00
7FC0
0E00
0E00
7FC0
0E00
1F00
1F00
ENDCHAR

STARTCHAR brokenbar
ENCODING 166
SWIDTH 600 0
DWIDTH 10 0
BBX 2 17 4 -3
BITMAP
C0
C0
C0
C0
C0
C0
C0
C0
00
C0
C0
C0
C0
C0
C0
C0
C0
ENDCHAR

STARTCHAR section
ENCODING 167
SWIDTH 600 0
DWIDTH 10 0
BBX 9 15 1 -3
BITMAP
1E00
3F00
7380
7000
7C00
3F00
6780
7180
3D80
1F00
0780
E380
6380
7F00
3E00
ENDCHAR

STARTCHAR dieresis
ENCODING 168
SWIDTH 500 0
DWIDTH 9 0
BBX 6 2 1 10
BITMAP
CC
CC
ENDCHAR

STARTCHAR copyright
ENCODING 169
SWIDTH 740 0
DWIDTH 13 0
BBX 12 12 0 0
BITMAP
1F80
2040
4FA0
5890
B090
B010
B010
B010
5910
4E20
30C0
0F00
ENDCHAR

STARTCHAR ordfeminine
ENCODING 170
SWIDTH 400 0
DWIDTH 7 0
BBX 6 5 1 7
BITMAP
F0
58
78
D8
FC
ENDCHAR

STARTCHAR guillemotleft
ENCODING 171
SWIDTH 400 0
DWIDTH 7 0
BBX 6 7 0 1
BITMAP
24
24
6C
D8
6C
24
24
ENDCHAR

STARTCHAR logicalnot
ENCODING 172
SWIDTH 600 0
DWIDTH 10 0
BBX 8 5 1 3
BITMAP
FF
FF
03
03
03
ENDCHAR

STARTCHAR hyphen
ENCODING 173
SWIDTH 360 0
DWIDTH 6 0
BBX 4 2 1 3
BITMAP
F0
F0
ENDCHAR

STARTCHAR registered
ENCODING 174
SWIDTH 740 0
DWIDTH 13 0
BBX 12 12 1 0
BITMAP
1F80
2040
5F20
5990
9990
9F10
9B10
9B10
5990
5DA0
30C0
0F00
ENDCHAR

STARTCHAR macron
ENCODING 175
SWIDTH 460 0
DWIDTH 8 0
BBX 6 1 1 10
BITMAP
FC
ENDCHAR

STARTCHAR degree
ENCODING 176
SWIDTH 400 0
DWIDTH 7 0
BBX 5 5 1 7
BITMAP
70
C8
88
D8
70
ENDCHAR

STARTCHAR plusminus
ENCODING 177
SWIDTH 600 0
DWIDTH 10 0
BBX 8 11 1 0
BITMAP
18
18
18
FF
FF
18
18
18
00
FF
FF
ENDCHAR

STARTCHAR twosuperior
ENCODING 178
SWIDTH 396 0
DWIDTH 7 0
BBX 6 6 0 6
BITMAP
78
CC
8C
18
64
FC
ENDCHAR

STARTCHAR threesuperior
ENCODING 179
SWIDTH 396 0
DWIDTH 7 0
BBX 6 6 1 6
BITMAP
78
4C
38
8C
CC
78
ENDCHAR

STARTCHAR acute
ENCODING 180
SWIDTH 400 0
DWIDTH 7 0
BBX 5 3 1 10
BITMAP
38
78
F0
ENDCHAR

STARTCHAR mu
ENCODING 181
SWIDTH 660 0
DWIDTH 11 0
BBX 10 12 1 -4
BITMAP
7380
7380
7380
7380
7380
7380
7780
79C0
C000
C000
C000
8000
ENDCHAR

STARTCHAR paragraph
ENCODING 182
SWIDTH 800 0
DWIDTH 14 0
BBX 10 15 2 -3
BITMAP
3FC0
7D00
7D00
FD00
7D00
7D00
3D00
0D00
0500
0500
0500
0500
0500
0500
0500
ENDCHAR

STARTCHAR periodcentered
ENCODING 183
SWIDTH 340 0
DWIDTH 6 0
BBX 3 3 1 4
BITMAP
E0
E0
E0
ENDCHAR

STARTCHAR cedilla
ENCODING 184
SWIDTH 360 0
DWIDTH 6 0
BBX 3 4 2 -4
BITMAP
80
E0
20
E0
ENDCHAR

STARTCHAR onesuperior
ENCODING 185
SWIDTH 396 0
DWIDTH 7 0
BBX 4 6 2 6
BITMAP
20
E0
60
60
60
F0
ENDCHAR

STARTCHAR ordmasculine
ENCODING 186
SWIDTH 400 0
DWIDTH 7 0
BBX 6 5 0 7
BITMAP
78
CC
CC
CC
78
ENDCHAR

STARTCHAR guillemotright
ENCODING 187
SWIDTH 400 0
DWIDTH 7 0
BBX 6 7 1 1
BITMAP
90
90
D8
6C
D8
90
90
ENDCHAR

STARTCHAR onequarter
ENCODING 188
SWIDTH 990 0
DWIDTH 17 0
BBX 14 12 2 0
BITMAP
2060
E040
6080
6180
6100
F200
0638
0478
0CC8
18FC
1018
3018
ENDCHAR

STARTCHAR onehalf
ENCODING 189
SWIDTH 990 0
DWIDTH 17 0
BBX 14 12 2 0
BITMAP
2060
E040
6080
6180
6100
F300
0678
04CC
0C8C
0818
1064
30FC
ENDCHAR

STARTCHAR threequarters
ENCODING 190
SWIDTH 990 0
DWIDTH 17 0
BBX 15 12 1 0
BITMAP
7830
4C20
3860
8C40
CC80
7980
011C
033C
026C
047E
0C0C
080C
ENDCHAR

STARTCHAR questiondown
ENCODING 191
SWIDTH 660 0
DWIDTH 11 0
BBX 9 12 1 -4
BITMAP
0E00
0E00
0E00
0000
0600
3E00
7E00
E000
E080
F180
7F80
1F00
ENDCHAR

STARTCHAR Agrave
ENCODING 192
SWIDTH 720 0
DWIDTH 12 0
BBX 12 15 0 0
BITMAP
0E00
0700
0000
0700
0700
0F80
0D80
1980
19C0
3FC0
3FC0
60E0
60E0
F1F0
F1F0
ENDCHAR

STARTCHAR Aacute
ENCODING 193
SWIDTH 720 0
DWIDTH 12 0
BBX 12 15 0 0
BITMAP
0380
0700
0000
0700
0700
0F80
0D80
1980
19C0
3FC0
3FC0
60E0
60E0
F1F0
F1F0
ENDCHAR

STARTCHAR Acircumflex
ENCODING 194
SWIDTH 720 0
DWIDTH 12 0
BBX 12 15 0 0
BITMAP
0700
0D80
0000
0700
0700
0F80
0D80
1980
19C0
3FC0
3FC0
60E0
60E0
F1F0
F1F0
ENDCHAR

STARTCHAR Atilde
ENCODING 195
SWIDTH 720 0
DWIDTH 12 0
BBX 12 15 0 0
BITMAP
0F40
1780
0000
0700
0700
0F80
0D80
1980
19C0
3FC0
3FC0
60E0
60E0
F1F0
F1F0
ENDCHAR

STARTCHAR Adieresis
ENCODING 196
SWIDTH 720 0
DWIDTH 12 0
BBX 12 15 0 0
BITMAP
18C0
18C0
0000
0700
0700
0F80
0D80
1980
19C0
3FC0
3FC0
60E0
60E0
F1F0
F1F0
ENDCHAR

STARTCHAR Aring
ENCODING 197
SWIDTH 720 0
DWIDTH 12 0
BBX 12 15 0 0
BITMAP
0700
0D80
0880
0700
0700
0F80
0D80
1980
19C0
3FC0
3FC0
60E0
60E0
F1F0
F1F0
ENDCHAR

STARTCHAR AE
ENCODING 198
SWIDTH 1140 0
DWIDTH 19 0
BBX 19 12 0 0
BITMAP
0FFFC0
0FFFE0
0670E0
0C7060
0C7200
187E00
1FFE00
3FF200
307060
7070E0
F8FFE0
F8FFC0
ENDCHAR

STARTCHAR Ccedilla
ENCODING 199
SWIDTH 740 0
DWIDTH 13 0
BBX 12 16 1 -4
BITMAP
0F60
3FE0
78E0
7060
E020
E000
E000
E000
7030
78E0
3FC0
0F80
0600
0300
0300
0E00
ENDCHAR

STARTCHAR Egrave
ENCODING 200
SWIDTH 720 0
DWIDTH 12 0
BBX 11 15 1 0
BITMAP
1C00
0E00
0000
FFC0
FFE0
70E0
7060
7200
7E00
7E00
7200
7060
70E0
FFE0
FFC0
ENDCHAR

STARTCHAR Eacute
ENCODING 201
SWIDTH 720 0
DWIDTH 12 0
BBX 11 15 1 0
BITMAP
0700
0E00
0000
FFC0
FFE0
70E0
7060
7200
7E00
7E00
7200
7060
70E0
FFE0
FFC0
ENDCHAR

STARTCHAR Ecircumflex
ENCODING 202
SWIDTH 720 0
DWIDTH 12 0
BBX 11 15 1 0
BITMAP
0E00
1B00
0000
FFC0
FFE0
70E0
7060
7200
7E00
7E00
7200
7060
70E0
FFE0
FFC0
ENDCHAR

STARTCHAR Edieresis
ENCODING 203
SWIDTH 720 0
DWIDTH 12 0
BBX 11 15 1 0
BITMAP
1980
1980
0000
FFC0
FFE0
70E0
7060
7200
7E00
7E00
7200
7060
70E0
FFE0
FFC0
ENDCHAR

STARTCHAR Igrave
ENCODING 204
SWIDTH 400 0
DWIDTH 7 0
BBX 5 15 1 0
BITMAP
E0
70
00
F8
F8
70
70
70
70
70
70
70
70
F8
F8
ENDCHAR

STARTCHAR Iacute
ENCODING 205
SWIDTH 400 0
DWIDTH 7 0
BBX 5 15 1 0
BITMAP
38
70
00
F8
F8
70
70
70
70
70
70
70
70
F8
F8
ENDCHAR

STARTCHAR Icircumflex
ENCODING 206
SWIDTH 400 0
DWIDTH 7 0
BBX 5 15 1 0
BITMAP
70
D8
00
F8
F8
70
70
70
70
70
70
70
70
F8
F8
ENDCHAR

STARTCHAR Idieresis
ENCODING 207
SWIDTH 400 0
DWIDTH 7 0
BBX 5 15 1 0
BITMAP
D8
D8
00
F8
F8
70
70
70
70
70
70
70
70
F8
F8
ENDCHAR

STARTCHAR Gbreve
ENCODING 208
SWIDTH 780 0
DWIDTH 13 0
BBX 12 15 1 0
BITMAP
18C0
0F80
0000
0F60
3FE0
78E0
7060
E000
E1F0
E1F0
E0E0
70E0
79E0
3FE0
0F60
ENDCHAR

STARTCHAR Ntilde
ENCODING 209
SWIDTH 740 0
DWIDTH 13 0
BBX 11 15 1 0
BITMAP
0F40
1780
0000
F9E0
F9E0
7CC0
6CC0
6EC0
6EC0
66C0
67C0
63C0
63C0
F1C0
F1C0
ENDCHAR

STARTCHAR Ograve
ENCODING 210
SWIDTH 800 0
DWIDTH 14 0
BBX 12 15 1 0
BITMAP
1C00
0E00
0000
1F80
7FE0
70E0
E070
E070
E070
E070
E070
E070
70E0
7FE0
1F80
ENDCHAR

STARTCHAR Oacute
ENCODING 211
SWIDTH 800 0
DWIDTH 14 0
BBX 12 15 1 0
BITMAP
0380
0700
0000
1F80
7FE0
70E0
E070
E070
E070
E070
E070
E070
70E0
7FE0
1F80
ENDCHAR

STARTCHAR Ocircumflex
ENCODING 212
SWIDTH 800 0
DWIDTH 14 0
BBX 12 15 1 0
BITMAP
0E00
1B00
0000
1F80
7FE0
70E0
E070
E070
E070
E070
E070
E070
70E0
7FE0
1F80
ENDCHAR

STARTCHAR Otilde
ENCODING 213
SWIDTH 800 0
DWIDTH 14 0
BBX 12 15 1 0
BITMAP
0F40
1780
0000
1F80
7FE0
70E0
E070
E070
E070
E070
E070
E070
70E0
7FE0
1F80
ENDCHAR

STARTCHAR Odieresis
ENCODING 214
SWIDTH 800 0
DWIDTH 14 0
BBX 12 15 1 0
BITMAP
1980
1980
0000
1F80
7FE0
70E0
E070
E070
E070
E070
E070
E070
70E0
7FE0
1F80
ENDCHAR

STARTCHAR multiply
ENCODING 215
SWIDTH 600 0
DWIDTH 10 0
BBX 8 8 1 2
BITMAP
43
E7
7E
3C
3C
76
E7
42
ENDCHAR

STARTCHAR Oslash
ENCODING 216
SWIDTH 800 0
DWIDTH 14 0
BBX 12 12 1 0
BITMAP
1FB0
7FE0
70E0
E1F0
E370
E270
E670
EC70
F870
78E0
7FE0
DF80
ENDCHAR

STARTCHAR Ugrave
ENCODING 217
SWIDTH 740 0
DWIDTH 13 0
BBX 11 15 1 0
BITMAP
0E00
0700
0000
F9E0
F9E0
70C0
70C0
70C0
70C0
70C0
70C0
70C0
79C0
3F80
1F00
ENDCHAR

STARTCHAR Uacute
ENCODING 218
SWIDTH 740 0
DWIDTH 13 0
BBX 11 15 1 0
BITMAP
0700
0E00
0000
F9E0
F9E0
70C0
70C0
70C0
70C0
70C0
70C0
70C0
79C0
3F80
1F00
ENDCHAR

STARTCHAR Ucircumflex
ENCODING 219
SWIDTH 740 0
DWIDTH 13 0
BBX 11 15 1 0
BITMAP
0E00
1B00
0000
F9E0
F9E0
70C0
70C0
70C0
70C0
70C0
70C0
70C0
79C0
3F80
1F00
ENDCHAR

STARTCHAR Udieresis
ENCODING 220
SWIDTH 740 0
DWIDTH 13 0
BBX 11 15 1 0
BITMAP
1980
1980
0000
F9E0
F9E0
70C0
70C0
70C0
70C0
70C0
70C0
70C0
79C0
3F80
1F00
ENDCHAR

STARTCHAR Idotaccent
ENCODING 221
SWIDTH 400 0
DWIDTH 7 0
BBX 5 15 1 0
BITMAP
30
30
00
F8
F8
70
70
70
70
70
70
70
70
F8
F8
ENDCHAR

STARTCHAR Scedilla
ENCODING 222
SWIDTH 660 0
DWIDTH 11 0
BBX 10 16 1 -4
BITMAP
3D00
7F80
E180
E080
F800
7F00
1F80
83C0
C1C0
E1C0
FF80
5F00
0C00
0600
0600
1C00
ENDCHAR

STARTCHAR germandbls
ENCODING 223
SWIDTH 660 0
DWIDTH 11 0
BBX 10 12 1 0
BITMAP
1F00
3F80
7180
7380
F600
F600
7780
73C0
71C0
7EC0
F7C0
F380
ENDCHAR

STARTCHAR agrave
ENCODING 224
SWIDTH 580 0
DWIDTH 10 0
BBX 9 11 1 0
BITMAP
3800
1C00
0000
3E00
7F00
6300
1F00
7B00
E300
FF80
7B80
ENDCHAR

STARTCHAR aacute
ENCODING 225
SWIDTH 580 0
DWIDTH 10 0
BBX 9 11 1 0
BITMAP
0E00
1C00
0000
3E00
7F00
6300
1F00
7B00
E300
FF80
7B80
ENDCHAR

STARTCHAR acircumflex
ENCODING 226
SWIDTH 580 0
DWIDTH 10 0
BBX 9 11 1 0
BITMAP
1C00
3600
0000
3E00
7F00
6300
1F00
7B00
E300
FF80
7B80
ENDCHAR

STARTCHAR atilde
ENCODING 227
SWIDTH 580 0
DWIDTH 10 0
BBX 9 11 1 0
BITMAP
1D00
2E00
0000
3E00
7F00
6300
1F00
7B00
E300
FF80
7B80
ENDCHAR

STARTCHAR adieresis
ENCODING 228
SWIDTH 580 0
DWIDTH 10 0
BBX 9 11 1 0
BITMAP
3300
3300
0000
3E00
7F00
6300
1F00
7B00
E300
FF80
7B80
ENDCHAR

STARTCHAR aring
ENCODING 229
SWIDTH 580 0
DWIDTH 10 0
BBX 9 12 1 0
BITMAP
1800
2400
2400
1800
3E00
7F00
6300
1F00
7B00
E300
FF80
7B80
ENDCHAR

STARTCHAR ae
ENCODING 230
SWIDTH 880 0
DWIDTH 16 0
BBX 15 8 1 0
BITMAP
3F78
7FFC
6386
1FFE
7B80
E386
FFFC
7B78
ENDCHAR

STARTCHAR ccedilla
ENCODING 231
SWIDTH 580 0
DWIDTH 10 0
BBX 9 12 1 -4
BITMAP
3E00
7F00
F300
E000
E000
F180
7F00
3E00
0C00
0600
0600
1C00
ENDCHAR

STARTCHAR egrave
ENCODING 232
SWIDTH 580 0
DWIDTH 10 0
BBX 9 11 1 0
BITMAP
3800
1C00
0000
3E00
7F00
E380
FF80
E000
F180
7F00
3E00
ENDCHAR

STARTCHAR eacute
ENCODING 233
SWIDTH 580 0
DWIDTH 10 0
BBX 9 11 1 0
BITMAP
0E00
1C00
0000
3E00
7F00
E380
FF80
E000
F180
7F00
3E00
ENDCHAR

STARTCHAR ecircumflex
ENCODING 234
SWIDTH 580 0
DWIDTH 10 0
BBX 9 11 1 0
BITMAP
1C00
3600
0000
3E00
7F00
E380
FF80
E000
F180
7F00
3E00
ENDCHAR

STARTCHAR edieresis
ENCODING 235
SWIDTH 580 0
DWIDTH 10 0
BBX 9 11 1 0
BITMAP
3600
3600
0000
3E00
7F00
E380
FF80
E000
F180
7F00
3E00
ENDCHAR

STARTCHAR igrave
ENCODING 236
SWIDTH 360 0
DWIDTH 6 0
BBX 5 11 1 0
BITMAP
E0
70
00
30
F0
F0
70
70
70
F8
F8
ENDCHAR

STARTCHAR iacute
ENCODING 237
SWIDTH 360 0
DWIDTH 6 0
BBX 5 11 1 0
BITMAP
38
70
00
30
F0
F0
70
70
70
F8
F8
ENDCHAR

STARTCHAR icircumflex
ENCODING 238
SWIDTH 360 0
DWIDTH 6 0
BBX 5 11 1 0
BITMAP
70
D8
00
30
F0
F0
70
70
70
F8
F8
ENDCHAR

STARTCHAR idieresis
ENCODING 239
SWIDTH 360 0
DWIDTH 6 0
BBX 6 11 1 0
BITMAP
CC
CC
00
30
F0
F0
70
70
70
F8
F8
ENDCHAR

STARTCHAR gbreve
ENCODING 240
SWIDTH 580 0
DWIDTH 10 0
BBX 9 15 1 -4
BITMAP
6600
3C00
0000
3D80
7F80
E700
E700
7E00
DC00
E000
FC00
7F00
C780
E380
7F00
ENDCHAR

STARTCHAR ntilde
ENCODING 241
SWIDTH 680 0
DWIDTH 12 0
BBX 10 11 1 0
BITMAP
1D00
2E00
0000
6F00
FF80
F380
7380
7380
7380
FBC0
FBC0
ENDCHAR

STARTCHAR ograve
ENCODING 242
SWIDTH 620 0
DWIDTH 11 0
BBX 9 11 1 0
BITMAP
3800
1C00
0000
3E00
7F00
E380
E380
E380
E380
7F00
3E00
ENDCHAR

STARTCHAR oacute
ENCODING 243
SWIDTH 620 0
DWIDTH 11 0
BBX 9 11 1 0
BITMAP
0E00
1C00
0000
3E00
7F00
E380
E380
E380
E380
7F00
3E00
ENDCHAR

STARTCHAR ocircumflex
ENCODING 244
SWIDTH 620 0
DWIDTH 11 0
BBX 9 11 1 0
BITMAP
1C00
3600
0000
3E00
7F00
E380
E380
E380
E380
7F00
3E00
ENDCHAR

STARTCHAR otilde
ENCODING 245
SWIDTH 620 0
DWIDTH 11 0
BBX 9 11 1 0
BITMAP
1D00
2E00
0000
3E00
7F00
E380
E380
E380
E380
7F00
3E00
ENDCHAR

STARTCHAR odieresis
ENCODING 246
SWIDTH 620 0
DWIDTH 11 0
BBX 9 11 1 0
BITMAP
6300
6300
0000
3E00
7F00
E380
E380
E380
E380
7F00
3E00
ENDCHAR

STARTCHAR divide
ENCODING 247
SWIDTH 600 0
DWIDTH 10 0
BBX 8 8 1 2
BITMAP
18
18
00
FF
FF
00
18
18
ENDCHAR

STARTCHAR oslash
ENCODING 248
SWIDTH 620 0
DWIDTH 11 0
BBX 9 8 1 0
BITMAP
3E80
7F00
E780
ED80
FB80
F380
7F00
5E00
ENDCHAR

STARTCHAR ugrave
ENCODING 249
SWIDTH 660 0
DWIDTH 11 0
BBX 10 11 1 0
BITMAP
3800
1C00
0000
F780
F780
7380
7380
7380
7380
7FC0
3DC0
ENDCHAR

STARTCHAR uacute
ENCODING 250
SWIDTH 660 0
DWIDTH 11 0
BBX 10 11 1 0
BITMAP
0E00
1C00
0000
F780
F780
7380
7380
7380
7380
7FC0
3DC0
ENDCHAR

STARTCHAR ucircumflex
ENCODING 251
SWIDTH 660 0
DWIDTH 11 0
BBX 10 11 1 0
BITMAP
1C00
3600
0000
F780
F780
7380
7380
7380
7380
7FC0
3DC0
ENDCHAR

STARTCHAR udieresis
ENCODING 252
SWIDTH 660 0
DWIDTH 11 0
BBX 10 11 1 0
BITMAP
3300
3300
0000
F780
F780
7380
7380
7380
7380
7FC0
3DC0
ENDCHAR

STARTCHAR dotlessi
ENCODING 253
SWIDTH 360 0
DWIDTH 6 0
BBX 5 8 1 0
BITMAP
30
F0
F0
70
70
70
F8
F8
ENDCHAR

STARTCHAR scedilla
ENCODING 254
SWIDTH 520 0
DWIDTH 9 0
BBX 7 12 1 -4
BITMAP
7C
FE
E6
F8
3E
C6
FE
7C
18
0C
0C
38
ENDCHAR

STARTCHAR ydieresis
ENCODING 255
SWIDTH 620 0
DWIDTH 11 0
BBX 10 15 1 -4
BITMAP
3300
3300
0000
FBC0
FBC0
7180
3980
3B00
1F00
1E00
0E00
0C00
4C00
F800
7000
ENDCHAR
ENDFONT
